<?xml version="1.0" encoding="UTF-8" standalone="no"?>
<svg
   xmlns:dc="http://purl.org/dc/elements/1.1/"
   xmlns:cc="http://creativecommons.org/ns#"
   xmlns:rdf="http://www.w3.org/1999/02/22-rdf-syntax-ns#"
   xmlns:svg="http://www.w3.org/2000/svg"
   xmlns="http://www.w3.org/2000/svg"
   xmlns:sodipodi="http://sodipodi.sourceforge.net/DTD/sodipodi-0.dtd"
   xmlns:inkscape="http://www.inkscape.org/namespaces/inkscape"
   viewBox="0 0 104.4 104.4"
   height="104.4"
   width="104.4"
   version="1.1"
   id="svg4314"
   sodipodi:docname="DAMASK_QR-CodeBW.svg"
   inkscape:version="0.92.1 r15371">
  <title
     id="title4483">DAMASK QR code</title>
  <sodipodi:namedview
     pagecolor="#ffffff"
     bordercolor="#666666"
     borderopacity="1"
     objecttolerance="10"
     gridtolerance="10"
     guidetolerance="10"
     inkscape:pageopacity="0"
     inkscape:pageshadow="2"
     inkscape:window-width="1920"
     inkscape:window-height="1001"
     id="namedview6"
     showgrid="false"
     inkscape:zoom="2.2605364"
     inkscape:cx="52.200001"
     inkscape:cy="52.200001"
     inkscape:window-x="-9"
     inkscape:window-y="-9"
     inkscape:window-maximized="1"
     inkscape:current-layer="svg4314" />
  <metadata
     id="metadata4320">
    <rdf:RDF>
      <cc:Work
         rdf:about="">
        <dc:format>image/svg+xml</dc:format>
        <dc:type
           rdf:resource="http://purl.org/dc/dcmitype/StillImage" />
        <dc:title>DAMASK QR code</dc:title>
        <cc:license
           rdf:resource="http://creativecommons.org/licenses/by-nd/4.0/" />
        <dc:creator>
          <cc:Agent>
            <dc:title>Franz Roters</dc:title>
          </cc:Agent>
        </dc:creator>
        <dc:subject>
          <rdf:Bag>
            <rdf:li>DAMASK; Crystal Plasticity; Multi-Physics</rdf:li>
          </rdf:Bag>
        </dc:subject>
        <dc:description>link to https://damask.mpie.de</dc:description>
      </cc:Work>
      <cc:License
         rdf:about="http://creativecommons.org/licenses/by-nd/4.0/">
        <cc:permits
           rdf:resource="http://creativecommons.org/ns#Reproduction" />
        <cc:permits
           rdf:resource="http://creativecommons.org/ns#Distribution" />
        <cc:requires
           rdf:resource="http://creativecommons.org/ns#Notice" />
        <cc:requires
           rdf:resource="http://creativecommons.org/ns#Attribution" />
      </cc:License>
    </rdf:RDF>
  </metadata>
  <defs
     id="defs4318" />
  <path
     id="path4864"
     d="M 0,91.799999 0,79.2 l 12.6,0 12.6,0 0,12.599999 0,12.600001 -12.6,0 -12.6,0 0,-12.600001 z m 21.6,0 0,-9 -9,0 -9,0 0,9 0,9.000001 9,0 9,0 0,-9.000001 z m -14.4,0 0,-5.4 5.4,0 5.4,0 0,5.4 0,5.400001 -5.4,0 -5.4,0 0,-5.400001 z M 32.4,100.8 l 0,-3.6 1.8,0 1.8,0 0,3.6 0,3.6 -1.8,0 -1.8,0 0,-3.6 z m 7.2,0 0,-3.6 1.8,0 1.8,0 0,-3.6 0,-3.6 1.8,0 1.8,0 0,1.8 0,1.8 1.8,0 1.8,0 0,1.8 0,1.8 1.8,0 1.8,0 0,1.8 0,1.8 -1.8,0 -1.8,0 0,1.8 0,1.8 -1.8,0 -1.8,0 0,-3.6 0,-3.6 -1.8,0 -1.8,0 0,3.6 0,3.6 -1.8,0 -1.8,0 0,-3.6 z m 25.2,1.8 0,-1.8 5.4,0 5.4,0 0,-1.8 0,-1.8 -1.8,0 -1.8,0 0,-1.8 0,-1.8 3.6,0 3.6,0 0,3.6 0,3.6 3.6,0 3.6,0 0,-1.8 0,-1.8 -1.8,0 -1.8,0 0,-3.6 0,-3.6 -7.2,0 -7.2,0 0,1.8 0,1.8 -1.8,0 -1.8,0 0,1.8 0,1.8 -3.6,0 -3.6,0 0,-1.8 0,-1.8 -1.8,0 -1.8,0 0,-1.8 0,-1.8 1.8,0 1.8,0 0,-3.6 0,-3.6 -1.8,0 -1.8,0 0,-1.8 0,-1.8 -1.8,0 -1.8,0 0,1.8 0,1.8 -1.8,0 -1.8,0 0,1.8 0,1.8 -1.8,0 -1.8,0 0,-1.8 0,-1.8 -1.8,0 -1.8,0 0,-1.8 0,-1.8 -1.8,0 -1.8,0 0,1.8 0,1.8 -3.6,0 -3.6,0 0,-3.6 0,-3.6 -9,0 -9,0 0,-3.6 0,-3.6 1.8,0 1.8,0 0,1.8 0,1.8 5.4,0 5.4,0 0,-1.8 0,-1.8 -1.8,0 -1.8,0 0,-1.8 0,-1.8 -3.6,0 -3.6,0 0,-1.8 0,-1.8 -1.8,0 -1.8,0 0,1.8 0,1.8 -1.8,0 -1.8,0 0,5.4 0,5.4 -3.6,0 -3.6,0 0,-18 0,-18 3.6,0 3.6,0 0,-1.8 0,-1.8 1.8,0 1.8,0 0,1.8 0,1.8 -1.8,0 -1.8,0 0,1.8 0,1.8 -1.8,0 -1.8,0 0,1.8 0,1.8 1.8,0 1.8,0 0,3.6 0,3.6 1.8,0 1.8,0 0,-5.4 0,-5.4 3.6,0 3.6,0 0,-1.8 0,-1.8 -1.8,0 -1.8,0 0,-1.8 0,-1.8 1.8,0 1.8,0 0,-1.8 0,-1.8 -3.6,0 -3.6,0 0,-1.8 0,-1.8 3.6,0 3.6,0 0,1.8 0,1.8 1.8,0 1.8,0 0,-1.8 0,-1.8 3.6,0 3.6,0 0,3.6 0,3.6 -1.8,0 -1.8,0 0,1.8 0,1.8 -1.8,0 -1.8,0 0,1.8 0,1.8 3.6,0 3.6,0 0,-1.8 0,-1.8 1.8,0 1.8,0 0,-1.8 0,-1.8 1.8,0 1.8,0 0,-1.8 0,-1.8 1.8,0 1.8,0 0,-1.8 0,-1.8 -1.8,0 -1.8,0 0,-5.4 0,-5.4 -1.8,0 -1.8,0 0,-1.8 0,-1.8 -1.8,0 -1.8,0 0,-3.6 0,-3.6 1.8,0 1.8,0 0,-1.8 0,-1.8 1.8,0 1.8,0 0,-1.8 0,-1.8 1.8,0 1.8,0 0,1.8 0,1.8 -1.8,0 -1.8,0 0,1.8 0,1.8 -1.8,0 -1.8,0 0,1.8 0,1.8 1.8,0 1.8,0 0,3.6 0,3.6 1.8,0 1.8,0 0,5.4 0,5.4 3.6,0 3.6,0 0,-1.8 0,-1.8 -1.8,0 -1.8,0 0,-1.8 0,-1.8 1.8,0 1.8,0 0,1.8 0,1.8 1.8,0 1.8,0 0,-3.6 0,-3.6 -3.6,0 -3.6,0 0,-1.8 0,-1.8 -1.8,0 -1.8,0 0,-3.6 0,-3.6 1.8,0 1.8,0 0,-1.8 0,-1.8 1.8,0 1.8,0 0,-1.8 0,-1.8 3.6,0 3.6,0 0,1.8 0,1.8 1.8,0 1.8,0 0,3.6 0,3.6 3.6,0 3.6,0 0,1.8 0,1.8 1.8,0 1.8,0 0,-1.8 0,-1.8 1.8,0 1.8,0 0,-3.6 0,-3.6 -3.6,0 -3.6,0 0,-1.8 0,-1.8 3.6,0 3.6,0 0,1.8 0,1.8 1.8,0 1.8,0 0,5.4 0,5.4 -1.8,0 -1.8,0 0,1.8 0,1.8 1.8,0 1.8,0 0,5.4 0,5.4 -1.8,0 -1.8,0 0,1.8 0,1.8 1.8,0 1.8,0 0,1.8 0,1.8 3.6,0 3.6,0 0,-1.8 0,-1.8 3.6,0 3.6,0 0,-1.8 0,-1.8 3.6,0 3.6,0 0,1.8 0,1.8 1.8,0 1.8,0 0,1.8 0,1.8 -1.8,0 -1.8,0 0,-1.8 0,-1.8 -3.6,0 -3.6,0 0,1.8 0,1.8 1.8,0 1.8,0 0,1.8 0,1.8 -3.6,0 -3.6,0 0,1.8 0,1.8 -1.8,0 -1.8,0 0,3.6 0,3.6 1.8,0 1.8,0 0,-1.8 0,-1.8 1.8,0 1.8,0 0,-1.8 0,-1.8 1.8,0 1.8,0 0,1.8 0,1.8 1.8,0 1.8,0 0,-1.8 0,-1.8 1.8,0 1.8,0 0,-1.8 0,-1.8 1.8,0 1.8,0 0,1.8 0,1.8 -1.8,0 -1.8,0 0,1.8 0,1.8 1.8,0 1.8,0 0,3.6 0,3.6 -1.8,0 -1.8,0 0,3.6 0,3.6 -1.8,0 -1.8,0 0,1.8 0,1.8 -1.8,0 -1.8,0 0,1.8 0,1.8 1.8,0 1.8,0 0,3.6 0,3.6 1.8,0 1.8,0 0,-5.4 0,-5.4 1.8,0 1.8,0 0,5.4 0,5.4 -1.8,0 -1.8,0 0,1.8 0,1.8 -1.8,0 -1.8,0 0,1.8 0,1.8 3.6,0 3.6,0 0,3.6 0,3.6 -1.8,0 -1.8,0 0,1.8 0,1.8 1.8,0 1.8,0 0,3.6 0,3.6 -1.8,0 -1.8,0 0,-1.8 0,-1.8 -1.8,0 -1.8,0 0,1.8 0,1.8 -1.8,0 -1.8,0 0,1.8 0,1.8 -14.4,0 -14.4,0 0,-1.8 z M 97.2,90 l 0,-7.200001 -1.8,0 -1.8,0 0,-1.799999 0,-1.8 -1.8,0 -1.8,0 0,1.8 0,1.799999 1.8,0 1.8,0 0,1.8 0,1.8 -1.8,0 -1.8,0 0,1.8 0,1.8 -1.8,0 -1.8,0 0,1.8 0,1.8 1.8,0 1.8,0 0,1.8 0,1.8 3.6,0 3.6,0 0,-7.2 z M 64.8,91.799999 64.8,90 l -3.6,0 -3.6,0 0,1.799999 0,1.8 3.6,0 3.6,0 0,-1.8 z m 0,-7.2 0,-1.8 1.8,0 1.8,0 0,-1.799999 0,-1.8 1.8,0 1.8,0 0,-1.8 0,-1.8 -1.8,0 -1.8,0 0,-1.8 0,-1.8 -1.8,0 -1.8,0 0,-1.8 0,-1.8 -1.8,0 -1.8,0 0,9 0,9 1.8,0 1.8,0 0,-1.8 z M 86.4,81 l 0,-5.400001 -5.4,0 -5.4,0 0,5.400001 0,5.4 5.4,0 5.4,0 0,-5.4 z m -7.2,0 0,-1.8 1.8,0 1.8,0 0,1.8 0,1.799999 -1.8,0 -1.8,0 L 79.2,81 Z m -28.8,-3.6 0,-1.8 1.8,0 1.8,0 0,-1.8 0,-1.8 -1.8,0 -1.8,0 0,-1.8 0,-1.8 -1.8,0 -1.8,0 0,1.8 0,1.8 -3.6,0 -3.6,0 0,-1.8 0,-1.8 -5.4,0 -5.4,0 0,3.6 0,3.6 1.8,0 1.8,0 0,-1.8 0,-1.8 1.8,0 1.8,0 0,1.8 0,1.8 5.4,0 5.4,0 0,1.8 0,1.8 1.8,0 1.8,0 0,-1.8 z m 25.2,-7.2 0,-1.8 3.6,0 3.6,0 0,1.8 0,1.8 1.8,0 1.8,0 0,-1.8 0,-1.8 -1.8,0 -1.8,0 0,-1.8 0,-1.8 1.8,0 1.8,0 0,-1.8 0,-1.8 1.8,0 1.8,0 0,-1.8 0,-1.8 -1.8,0 -1.8,0 0,-1.8 0,-1.8 1.8,0 1.8,0 0,-1.8 0,-1.8 1.8,0 1.8,0 0,1.8 0,1.8 3.6,0 3.6,0 0,-3.6 0,-3.6 -1.8,0 -1.8,0 0,1.8 0,1.8 -1.8,0 -1.8,0 0,-1.8 0,-1.8 -1.8,0 -1.8,0 0,1.8 0,1.8 -1.8,0 -1.8,0 0,1.8 0,1.8 -1.8,0 -1.8,0 0,1.8 0,1.8 -1.8,0 -1.8,0 0,1.8 0,1.8 -1.8,0 -1.8,0 0,3.6 0,3.6 -1.8,0 -1.8,0 0,1.8 0,1.8 1.8,0 1.8,0 0,-1.8 z m 7.2,-10.8 0,-1.8 1.8,0 1.8,0 0,1.8 0,1.8 -1.8,0 -1.8,0 0,-1.8 z m 10.8,10.8 0,-1.8 -1.8,0 -1.8,0 0,1.8 0,1.8 1.8,0 1.8,0 0,-1.8 z M 54.675,65.940753 c 1.58274,-0.253849 2.68792,-0.622968 4.005,-1.337639 0.80385,-0.436187 1.29322,-0.817177 2.0401,-1.588302 l 0.55511,-0.573123 0.49568,-0.733345 c 0.93777,-1.387426 1.73898,-3.268611 2.03726,-4.783345 0.0585,-0.296999 0.14336,-0.708932 0.1886,-0.915405 0.0453,-0.206473 0.12896,-1.091737 0.18603,-1.967253 l 0.10377,-1.59185 -0.10544,-1.65884 -0.10544,-1.658839 -0.21894,-1.098906 C 63.5826,46.658 63.29602,45.776445 62.74362,44.609866 62.22225,43.508844 61.80256,42.842806 61.12689,42.044171 60.4746,41.273167 60.36372,41.163769 59.715,40.651165 59.418,40.416483 59.12901,40.18795 59.0728,40.143315 58.83244,39.95243 57.32751,39.250288 56.79,39.078243 56.46825,38.975258 55.881,38.828214 55.485,38.751477 l -0.72,-0.13952 -1.35,-0.08959 -1.35,-0.08959 -5.5125,-0.0014 -5.5125,-0.0014 0,13.867728 0,13.867728 6.3675,-0.04018 6.3675,-0.04018 0.9,-0.144345 z M 46.728,61.362 46.62,61.254 l 0,-9.03471 0,-9.034712 3.2625,0.03889 3.2625,0.03889 0.72296,0.187794 0.72296,0.187793 0.56879,0.291114 0.56879,0.291115 0.50156,0.457414 0.50156,0.457414 0.34131,0.527 0.34131,0.527 0.28364,0.732999 0.28364,0.733 0.17751,0.81 0.17751,0.810001 0.0481,2.421599 0.0481,2.421602 -0.10957,0.953398 -0.10957,0.953401 -0.219,0.899999 -0.21899,0.9 -0.39479,0.810001 -0.39478,0.81 -0.48057,0.473464 -0.48057,0.473462 -0.495,0.259251 c -0.27225,0.142589 -0.77389,0.345038 -1.11474,0.449888 l -0.61974,0.190638 -1.22526,0.08836 -1.22526,0.08836 -2.2545,8.1e-4 -2.2545,8.1e-4 -0.108,-0.108 z M 7.2,63 l 0,-1.8 1.8,0 1.8,0 0,-1.8 0,-1.8 -3.6,0 -3.6,0 0,3.6 0,3.6 1.8,0 1.8,0 0,-1.8 z m 21.6,0 0,-1.8 1.8,0 1.8,0 0,-1.8 0,-1.8 1.8,0 1.8,0 0,-9 0,-9 -1.8,0 -1.8,0 0,1.8 0,1.8 -1.8,0 -1.8,0 0,1.8 0,1.799999 1.8,0 1.8,0 0,1.8 0,1.8 -3.6,0 -3.6,0 0,-1.8 0,-1.8 -1.8,0 -1.8,0 0,1.8 0,1.8 -1.8,0 -1.8,0 0,-1.8 0,-1.8 -1.8,0 -1.8,0 0,1.8 0,1.8 1.8,0 1.8,0 0,3.6 0,3.6 5.4,0 5.4,0 0,1.8 0,1.8 -3.6,0 -3.6,0 0,1.8 0,1.8 3.6,0 3.6,0 0,-1.8 z m -7.2,-10.8 0,-1.8 1.8,0 1.8,0 0,1.8 0,1.8 -1.8,0 -1.8,0 0,-1.8 z m 50.4,7.2 0,-1.8 1.8,0 1.8,0 0,-1.8 0,-1.8 1.8,0 1.8,0 0,-3.6 0,-3.6 -5.4,0 -5.4,0 0,1.8 0,1.8 1.8,0 1.8,0 0,1.8 0,1.8 -1.8,0 -1.8,0 0,3.6 0,3.6 1.8,0 1.8,0 0,-1.8 z m 25.2,0 0,-1.8 -1.8,0 -1.8,0 0,1.8 0,1.8 1.8,0 1.8,0 0,-1.8 z m -25.2,-18 0,-1.8 1.8,0 1.8,0 0,1.8 0,1.8 3.6,0 3.6,0 0,-1.8 0,-1.8 1.8,0 1.8,0 0,-1.8 0,-1.8 -1.8,0 -1.8,0 0,1.8 0,1.8 -3.6,0 -3.6,0 0,-1.8 0,-1.8 -1.8,0 -1.8,0 0,-1.8 0,-1.8 -3.6,0 -3.6,0 0,-1.8 0,-1.8 1.8,0 1.8,0 0,-1.8 0,-1.8 1.8,0 1.8,0 0,-3.6 0,-3.6 -1.8,0 -1.8,0 0,3.6 0,3.6 -1.8,0 -1.8,0 0,-1.8 0,-1.8 -1.8,0 -1.8,0 0,3.6 0,3.6 -1.8,0 -1.8,0 0,1.8 0,1.8 -1.8,0 -1.8,0 0,-3.6 0,-3.6 1.8,0 1.8,0 0,-3.6 0,-3.6 1.8,0 1.8,0 0,-1.8 0,-1.8 -5.4,0 -5.4,0 0,-1.8 0,-1.8 1.8,0 1.8,0 0,-1.8 0,-1.8 -1.8,0 -1.8,0 0,-1.8 0,-1.8 -1.8,0 -1.8,0 0,1.8 0,1.8 -1.8,0 -1.8,0 0,1.8 0,1.8 1.8,0 1.8,0 0,1.8 0,1.8 1.8,0 1.8,0 0,1.8 0,1.8 1.8,0 1.8,0 0,3.6 0,3.6 -1.8,0 -1.8,0 0,1.8 0,1.8 -1.8,0 -1.8,0 0,3.6 0,3.6 5.4,0 5.4,0 0,-1.8 0,-1.8 3.6,0 3.6,0 0,1.8 0,1.8 1.8,0 1.8,0 0,3.6 0,3.6 1.8,0 1.8,0 0,-1.8 z m -46.8,-7.2 0,-1.8 -1.8,0 -1.8,0 0,1.8 0,1.8 1.8,0 1.8,0 0,-1.8 z m 3.6,55.8 0,-3.6 5.4,0 5.4,0 0,3.6 0,3.599999 -5.4,0 -5.4,0 L 28.8,90 Z M 0,34.2 l 0,-1.8 1.8,0 1.8,0 0,1.8 0,1.8 L 1.8,36 0,36 0,34.2 Z M 0,12.6 0,0 l 12.6,0 12.6,0 0,12.6 0,12.6 -12.6,0 -12.6,0 0,-12.6 z m 21.6,0 0,-9 -9,0 -9,0 0,9 0,9 9,0 9,0 0,-9 z m -14.4,0 0,-5.4 5.4,0 5.4,0 0,5.4 0,5.4 -5.4,0 -5.4,0 0,-5.4 z m 21.6,10.8 0,-1.8 1.8,0 1.8,0 0,1.8 0,1.8 -1.8,0 -1.8,0 0,-1.8 z m 50.4,-10.8 0,-12.6 12.6,0 12.6,0 0,12.6 0,12.6 -12.6,0 -12.6,0 0,-12.6 z m 21.6,0 0,-9 -9,0 -9,0 0,9 0,9 9,0 9,0 0,-9 z m -14.4,0 0,-5.4 5.4,0 5.4,0 0,5.4 0,5.4 -5.4,0 -5.4,0 0,-5.4 z"
     style="fill:#000000" />
</svg>
